<svg version="1.1" id="Layer_1" xmlns="http://www.w3.org/2000/svg" xmlns:xlink="http://www.w3.org/1999/xlink" x="0px" y="0px"
	viewBox="0 0 32.486 5.787" enable-background="new 0 0 32.486 5.787" xml:space="preserve">
<g>
	<defs>
		<rect id="SVGID_1_" width="32.486" height="5.787"/>
	</defs>
	<clipPath id="SVGID_2_">
		<use xlink:href="#SVGID_1_"  overflow="visible"/>
	</clipPath>
	<g clip-path="url(#SVGID_2_)">
		<defs>
			<rect id="SVGID_3_" width="32.486" height="5.787"/>
		</defs>
		<clipPath id="SVGID_4_">
			<use xlink:href="#SVGID_3_"  overflow="visible"/>
		</clipPath>
		<path clip-path="url(#SVGID_4_)" fill="#FFFFFF" d="M30.104,3.192c0-0.528,0.347-0.892,0.768-0.892
			c0.503,0,0.804,0.39,0.804,0.892c0,0.534-0.339,0.899-0.767,0.899C30.406,4.09,30.104,3.694,30.104,3.192 M29.294,3.192
			c0,0.943,0.716,1.615,1.596,1.615c0.817,0,1.597-0.646,1.597-1.615c0-0.943-0.717-1.615-1.597-1.615
			C30.085,1.577,29.294,2.243,29.294,3.192 M27.456,4.549l0.804,0.258v-2.23c0-0.094-0.006-0.182-0.006-0.277
			c0.102,0.006,0.201,0.006,0.289,0.006h0.49V1.621h-0.49c-0.094,0-0.189,0.006-0.289,0.013C28.26,1.54,28.26,1.439,28.26,1.339
			V0.911h-0.804v0.427c0,0.107,0,0.201,0.006,0.295c-0.094-0.006-0.195-0.013-0.283-0.013h-0.245v0.685h0.245
			c0.095,0,0.189,0,0.283-0.006c-0.006,0.088-0.006,0.189-0.006,0.277V4.549z M24.251,3.192c0-0.528,0.346-0.892,0.767-0.892
			c0.504,0,0.805,0.39,0.805,0.892c0,0.534-0.339,0.899-0.768,0.899C24.552,4.09,24.251,3.694,24.251,3.192 M23.44,3.192
			c0,0.943,0.716,1.615,1.596,1.615c0.816,0,1.596-0.646,1.596-1.615c0-0.943-0.716-1.615-1.596-1.615
			C24.232,1.577,23.44,2.243,23.44,3.192 M19.839,4.763h0.812V2.897c0-0.145-0.014-0.283-0.038-0.408
			c0.17-0.069,0.503-0.176,0.942-0.176c0.44,0,0.528,0.239,0.528,0.716v1.733h0.811V2.903c0-0.817-0.39-1.326-1.188-1.326
			c-0.358,0-0.993,0.145-1.301,0.427c-0.195-0.277-0.509-0.427-0.943-0.427c-0.302,0-0.792,0.101-1.125,0.302l-0.742-0.258v3.142
			h0.812V2.476c0.176-0.069,0.496-0.163,0.904-0.163c0.44,0,0.528,0.239,0.528,0.716V4.763 M15.968,4.549l0.805,0.214V1.621h-0.805
			V4.549z M12.455,1.621l-0.006,0.685h1.1L13.901,2.3l-1.659,2.363v0.101h4.531L16.295,4.11h-2.394l-0.333,0.013l1.64-2.388V1.621
			H12.455z M10.884,4.549l0.804,0.258V1.621h-0.804V4.549z"/>
		<polygon clip-path="url(#SVGID_4_)" fill="#FF0B00" points="5.461,5.786 3.475,5.776 7.215,0 7.941,0 		"/>
		<polygon clip-path="url(#SVGID_4_)" fill="#FF0B00" points="2.979,5.776 0.995,5.776 6.406,0 7.148,0 		"/>
		<g opacity="0.65" clip-path="url(#SVGID_4_)" enable-background="new    ">
			<g>
				<defs>
					<rect id="SVGID_5_" width="6.561" height="5.775"/>
				</defs>
				<clipPath id="SVGID_6_">
					<use xlink:href="#SVGID_5_"  overflow="visible"/>
				</clipPath>
				<path clip-path="url(#SVGID_6_)" fill="#FF0B00" d="M1.66,0C0.744,0,0,0.745,0,1.66v1.652v1.537C0,5.36,0.415,5.775,0.926,5.775
					h0.069V5.772V3.927V3.524V1.661c0-0.367,0.298-0.713,0.665-0.713h4.087L6.561,0H1.66z"/>
			</g>
		</g>
		<g opacity="0.65" clip-path="url(#SVGID_4_)" enable-background="new    ">
			<g>
				<defs>
					<rect id="SVGID_7_" x="4.946" width="3.99" height="5.787"/>
				</defs>
				<clipPath id="SVGID_8_">
					<use xlink:href="#SVGID_7_"  overflow="visible"/>
				</clipPath>
				<path clip-path="url(#SVGID_8_)" fill="#FF0B00" d="M8.01,0H7.941v0.004v1.845v0.44v1.837c0,0.367-0.298,0.713-0.665,0.713
					h-1.98l-0.35,0.948h2.33c0.916,0,1.66-0.745,1.66-1.66V2.235V0.928C8.936,0.415,8.521,0,8.01,0"/>
			</g>
		</g>
	</g>
</g>
</svg>
